<mxfile host="app.diagrams.net" modified="2024-04-01T14:34:29.078Z" agent="Mozilla/5.0 (Windows NT 10.0; Win64; x64) AppleWebKit/537.36 (KHTML, like Gecko) Chrome/123.0.0.0 Safari/537.36" etag="elcA_bedSyqF2TX-vSyh" version="24.2.1" type="device">
  <diagram name="Страница — 1" id="1MukgA3tSF4Iga6SsiN8">
    <mxGraphModel dx="794" dy="515" grid="1" gridSize="10" guides="1" tooltips="1" connect="1" arrows="1" fold="1" page="1" pageScale="1" pageWidth="827" pageHeight="1169" math="0" shadow="0">
      <root>
        <mxCell id="0" />
        <mxCell id="1" parent="0" />
        <mxCell id="OoIXohctgrmszUmJhh-0-2" value="&lt;span style=&quot;font-family: &amp;quot;Söhne Mono&amp;quot;, Monaco, &amp;quot;Andale Mono&amp;quot;, &amp;quot;Ubuntu Mono&amp;quot;, monospace; font-size: 14px; font-weight: 400; text-align: left; white-space: pre; background-color: rgb(255, 255, 255);&quot;&gt;AddressBook&lt;/span&gt;" style="swimlane;fontStyle=1;align=center;verticalAlign=top;childLayout=stackLayout;horizontal=1;startSize=26;horizontalStack=0;resizeParent=1;resizeParentMax=0;resizeLast=0;collapsible=1;marginBottom=0;whiteSpace=wrap;html=1;" vertex="1" parent="1">
          <mxGeometry x="167" y="20" width="230" height="258" as="geometry" />
        </mxCell>
        <mxCell id="OoIXohctgrmszUmJhh-0-3" value="&lt;span style=&quot;font-family: &amp;quot;Söhne Mono&amp;quot;, Monaco, &amp;quot;Andale Mono&amp;quot;, &amp;quot;Ubuntu Mono&amp;quot;, monospace; font-size: 14px; white-space: pre; background-color: rgb(255, 255, 255);&quot;&gt;- records: dict&lt;/span&gt;" style="text;strokeColor=none;fillColor=none;align=left;verticalAlign=top;spacingLeft=4;spacingRight=4;overflow=hidden;rotatable=0;points=[[0,0.5],[1,0.5]];portConstraint=eastwest;whiteSpace=wrap;html=1;" vertex="1" parent="OoIXohctgrmszUmJhh-0-2">
          <mxGeometry y="26" width="230" height="26" as="geometry" />
        </mxCell>
        <mxCell id="OoIXohctgrmszUmJhh-0-4" value="" style="line;strokeWidth=1;fillColor=none;align=left;verticalAlign=middle;spacingTop=-1;spacingLeft=3;spacingRight=3;rotatable=0;labelPosition=right;points=[];portConstraint=eastwest;strokeColor=inherit;" vertex="1" parent="OoIXohctgrmszUmJhh-0-2">
          <mxGeometry y="52" width="230" height="8" as="geometry" />
        </mxCell>
        <mxCell id="OoIXohctgrmszUmJhh-0-5" value="&lt;span style=&quot;font-family: &amp;quot;Söhne Mono&amp;quot;, Monaco, &amp;quot;Andale Mono&amp;quot;, &amp;quot;Ubuntu Mono&amp;quot;, monospace; font-size: 14px; white-space: pre; background-color: rgb(255, 255, 255);&quot;&gt;+ add_record()&lt;/span&gt;" style="text;strokeColor=none;fillColor=none;align=left;verticalAlign=top;spacingLeft=4;spacingRight=4;overflow=hidden;rotatable=0;points=[[0,0.5],[1,0.5]];portConstraint=eastwest;whiteSpace=wrap;html=1;" vertex="1" parent="OoIXohctgrmszUmJhh-0-2">
          <mxGeometry y="60" width="230" height="26" as="geometry" />
        </mxCell>
        <mxCell id="OoIXohctgrmszUmJhh-0-7" value="&lt;span style=&quot;background-color: rgb(255, 255, 255);&quot;&gt;&lt;span style=&quot;font-family: &amp;quot;Söhne Mono&amp;quot;, Monaco, &amp;quot;Andale Mono&amp;quot;, &amp;quot;Ubuntu Mono&amp;quot;, monospace; font-size: 14px; white-space: pre;&quot;&gt;+ &lt;/span&gt;&lt;span style=&quot;border: 0px solid rgb(227, 227, 227); box-sizing: border-box; --tw-border-spacing-x: 0; --tw-border-spacing-y: 0; --tw-translate-x: 0; --tw-translate-y: 0; --tw-rotate: 0; --tw-skew-x: 0; --tw-skew-y: 0; --tw-scale-x: 1; --tw-scale-y: 1; --tw-pan-x: ; --tw-pan-y: ; --tw-pinch-zoom: ; --tw-scroll-snap-strictness: proximity; --tw-gradient-from-position: ; --tw-gradient-via-position: ; --tw-gradient-to-position: ; --tw-ordinal: ; --tw-slashed-zero: ; --tw-numeric-figure: ; --tw-numeric-spacing: ; --tw-numeric-fraction: ; --tw-ring-inset: ; --tw-ring-offset-width: 0px; --tw-ring-offset-color: #fff; --tw-ring-color: rgba(69,89,164,.5); --tw-ring-offset-shadow: 0 0 transparent; --tw-ring-shadow: 0 0 transparent; --tw-shadow: 0 0 transparent; --tw-shadow-colored: 0 0 transparent; --tw-blur: ; --tw-brightness: ; --tw-contrast: ; --tw-grayscale: ; --tw-hue-rotate: ; --tw-invert: ; --tw-saturate: ; --tw-sepia: ; --tw-drop-shadow: ; --tw-backdrop-blur: ; --tw-backdrop-brightness: ; --tw-backdrop-contrast: ; --tw-backdrop-grayscale: ; --tw-backdrop-hue-rotate: ; --tw-backdrop-invert: ; --tw-backdrop-opacity: ; --tw-backdrop-saturate: ; --tw-backdrop-sepia: ; --tw-contain-size: ; --tw-contain-layout: ; --tw-contain-paint: ; --tw-contain-style: ; font-family: &amp;quot;Söhne Mono&amp;quot;, Monaco, &amp;quot;Andale Mono&amp;quot;, &amp;quot;Ubuntu Mono&amp;quot;, monospace; font-size: 14px; white-space: pre;&quot; class=&quot;hljs-built_in&quot;&gt;find&lt;/span&gt;&lt;span style=&quot;font-family: &amp;quot;Söhne Mono&amp;quot;, Monaco, &amp;quot;Andale Mono&amp;quot;, &amp;quot;Ubuntu Mono&amp;quot;, monospace; font-size: 14px; white-space: pre;&quot;&gt;()&lt;/span&gt;&lt;/span&gt;" style="text;strokeColor=none;fillColor=none;align=left;verticalAlign=top;spacingLeft=4;spacingRight=4;overflow=hidden;rotatable=0;points=[[0,0.5],[1,0.5]];portConstraint=eastwest;whiteSpace=wrap;html=1;" vertex="1" parent="OoIXohctgrmszUmJhh-0-2">
          <mxGeometry y="86" width="230" height="26" as="geometry" />
        </mxCell>
        <mxCell id="OoIXohctgrmszUmJhh-0-6" value="&lt;span style=&quot;font-family: &amp;quot;Söhne Mono&amp;quot;, Monaco, &amp;quot;Andale Mono&amp;quot;, &amp;quot;Ubuntu Mono&amp;quot;, monospace; font-size: 14px; white-space: pre; background-color: rgb(255, 255, 255);&quot;&gt;+ delete()&lt;/span&gt;" style="text;strokeColor=none;fillColor=none;align=left;verticalAlign=top;spacingLeft=4;spacingRight=4;overflow=hidden;rotatable=0;points=[[0,0.5],[1,0.5]];portConstraint=eastwest;whiteSpace=wrap;html=1;" vertex="1" parent="OoIXohctgrmszUmJhh-0-2">
          <mxGeometry y="112" width="230" height="26" as="geometry" />
        </mxCell>
        <mxCell id="OoIXohctgrmszUmJhh-0-8" value="&lt;span style=&quot;font-family: &amp;quot;Söhne Mono&amp;quot;, Monaco, &amp;quot;Andale Mono&amp;quot;, &amp;quot;Ubuntu Mono&amp;quot;, monospace; font-size: 14px; white-space: pre; background-color: rgb(255, 255, 255);&quot;&gt;+ get_upcoming_birthdays()&lt;/span&gt;&lt;span style=&quot;color: rgb(255, 255, 255); font-family: &amp;quot;Söhne Mono&amp;quot;, Monaco, &amp;quot;Andale Mono&amp;quot;, &amp;quot;Ubuntu Mono&amp;quot;, monospace; font-size: 14px; white-space: pre; background-color: rgb(13, 13, 13);&quot;&gt;&lt;br&gt;&lt;/span&gt;" style="text;strokeColor=none;fillColor=none;align=left;verticalAlign=top;spacingLeft=4;spacingRight=4;overflow=hidden;rotatable=0;points=[[0,0.5],[1,0.5]];portConstraint=eastwest;whiteSpace=wrap;html=1;" vertex="1" parent="OoIXohctgrmszUmJhh-0-2">
          <mxGeometry y="138" width="230" height="42" as="geometry" />
        </mxCell>
        <mxCell id="OoIXohctgrmszUmJhh-0-9" value="&lt;span style=&quot;font-family: &amp;quot;Söhne Mono&amp;quot;, Monaco, &amp;quot;Andale Mono&amp;quot;, &amp;quot;Ubuntu Mono&amp;quot;, monospace; font-size: 14px; white-space: pre; background-color: rgb(255, 255, 255);&quot;&gt;+ save_to_file()&lt;/span&gt;" style="text;strokeColor=none;fillColor=none;align=left;verticalAlign=top;spacingLeft=4;spacingRight=4;overflow=hidden;rotatable=0;points=[[0,0.5],[1,0.5]];portConstraint=eastwest;whiteSpace=wrap;html=1;" vertex="1" parent="OoIXohctgrmszUmJhh-0-2">
          <mxGeometry y="180" width="230" height="26" as="geometry" />
        </mxCell>
        <mxCell id="OoIXohctgrmszUmJhh-0-10" value="&lt;span style=&quot;font-family: &amp;quot;Söhne Mono&amp;quot;, Monaco, &amp;quot;Andale Mono&amp;quot;, &amp;quot;Ubuntu Mono&amp;quot;, monospace; font-size: 14px; white-space: pre; background-color: rgb(255, 255, 255);&quot;&gt;+ load_from_file()&lt;/span&gt;" style="text;strokeColor=none;fillColor=none;align=left;verticalAlign=top;spacingLeft=4;spacingRight=4;overflow=hidden;rotatable=0;points=[[0,0.5],[1,0.5]];portConstraint=eastwest;whiteSpace=wrap;html=1;" vertex="1" parent="OoIXohctgrmszUmJhh-0-2">
          <mxGeometry y="206" width="230" height="26" as="geometry" />
        </mxCell>
        <mxCell id="OoIXohctgrmszUmJhh-0-11" value="&lt;span style=&quot;font-family: &amp;quot;Söhne Mono&amp;quot;, Monaco, &amp;quot;Andale Mono&amp;quot;, &amp;quot;Ubuntu Mono&amp;quot;, monospace; font-size: 14px; white-space: pre; background-color: rgb(255, 255, 255);&quot;&gt;+ parse_input()&lt;/span&gt;" style="text;strokeColor=none;fillColor=none;align=left;verticalAlign=top;spacingLeft=4;spacingRight=4;overflow=hidden;rotatable=0;points=[[0,0.5],[1,0.5]];portConstraint=eastwest;whiteSpace=wrap;html=1;" vertex="1" parent="OoIXohctgrmszUmJhh-0-2">
          <mxGeometry y="232" width="230" height="26" as="geometry" />
        </mxCell>
        <mxCell id="OoIXohctgrmszUmJhh-0-15" value="&lt;span style=&quot;font-family: &amp;quot;Söhne Mono&amp;quot;, Monaco, &amp;quot;Andale Mono&amp;quot;, &amp;quot;Ubuntu Mono&amp;quot;, monospace; font-size: 14px; text-align: left; white-space: pre; background-color: rgb(255, 255, 255);&quot;&gt;Record&lt;/span&gt;" style="swimlane;fontStyle=0;childLayout=stackLayout;horizontal=1;startSize=26;fillColor=none;horizontalStack=0;resizeParent=1;resizeParentMax=0;resizeLast=0;collapsible=1;marginBottom=0;whiteSpace=wrap;html=1;" vertex="1" parent="1">
          <mxGeometry x="480" y="40" width="140" height="126" as="geometry" />
        </mxCell>
        <mxCell id="OoIXohctgrmszUmJhh-0-16" value="&lt;span style=&quot;font-family: &amp;quot;Söhne Mono&amp;quot;, Monaco, &amp;quot;Andale Mono&amp;quot;, &amp;quot;Ubuntu Mono&amp;quot;, monospace; font-size: 14px; white-space: pre; background-color: rgb(255, 255, 255);&quot;&gt;- name: Name&lt;/span&gt;" style="text;strokeColor=none;fillColor=none;align=left;verticalAlign=top;spacingLeft=4;spacingRight=4;overflow=hidden;rotatable=0;points=[[0,0.5],[1,0.5]];portConstraint=eastwest;whiteSpace=wrap;html=1;" vertex="1" parent="OoIXohctgrmszUmJhh-0-15">
          <mxGeometry y="26" width="140" height="26" as="geometry" />
        </mxCell>
        <mxCell id="OoIXohctgrmszUmJhh-0-17" value="&lt;span style=&quot;background-color: rgb(255, 255, 255);&quot;&gt;&lt;span style=&quot;border: 0px solid rgb(227, 227, 227); box-sizing: border-box; --tw-border-spacing-x: 0; --tw-border-spacing-y: 0; --tw-translate-x: 0; --tw-translate-y: 0; --tw-rotate: 0; --tw-skew-x: 0; --tw-skew-y: 0; --tw-scale-x: 1; --tw-scale-y: 1; --tw-pan-x: ; --tw-pan-y: ; --tw-pinch-zoom: ; --tw-scroll-snap-strictness: proximity; --tw-gradient-from-position: ; --tw-gradient-via-position: ; --tw-gradient-to-position: ; --tw-ordinal: ; --tw-slashed-zero: ; --tw-numeric-figure: ; --tw-numeric-spacing: ; --tw-numeric-fraction: ; --tw-ring-inset: ; --tw-ring-offset-width: 0px; --tw-ring-offset-color: #fff; --tw-ring-color: rgba(69,89,164,.5); --tw-ring-offset-shadow: 0 0 transparent; --tw-ring-shadow: 0 0 transparent; --tw-shadow: 0 0 transparent; --tw-shadow-colored: 0 0 transparent; --tw-blur: ; --tw-brightness: ; --tw-contrast: ; --tw-grayscale: ; --tw-hue-rotate: ; --tw-invert: ; --tw-saturate: ; --tw-sepia: ; --tw-drop-shadow: ; --tw-backdrop-blur: ; --tw-backdrop-brightness: ; --tw-backdrop-contrast: ; --tw-backdrop-grayscale: ; --tw-backdrop-hue-rotate: ; --tw-backdrop-invert: ; --tw-backdrop-opacity: ; --tw-backdrop-saturate: ; --tw-backdrop-sepia: ; --tw-contain-size: ; --tw-contain-layout: ; --tw-contain-paint: ; --tw-contain-style: ; font-family: &amp;quot;Söhne Mono&amp;quot;, Monaco, &amp;quot;Andale Mono&amp;quot;, &amp;quot;Ubuntu Mono&amp;quot;, monospace; font-size: 14px; white-space: pre;&quot; class=&quot;hljs-comment&quot;&gt;- phones: list&lt;/span&gt;&lt;span style=&quot;font-family: &amp;quot;Söhne Mono&amp;quot;, Monaco, &amp;quot;Andale Mono&amp;quot;, &amp;quot;Ubuntu Mono&amp;quot;, monospace; font-size: 14px; white-space: pre;&quot;&gt;&lt;br&gt;&lt;/span&gt;&lt;/span&gt;&lt;span style=&quot;font-family: &amp;quot;Söhne Mono&amp;quot;, Monaco, &amp;quot;Andale Mono&amp;quot;, &amp;quot;Ubuntu Mono&amp;quot;, monospace; font-size: 14px; white-space: pre;&quot;&gt; &lt;/span&gt;&lt;span style=&quot;border: 0px solid rgb(227, 227, 227); box-sizing: border-box; --tw-border-spacing-x: 0; --tw-border-spacing-y: 0; --tw-translate-x: 0; --tw-translate-y: 0; --tw-rotate: 0; --tw-skew-x: 0; --tw-skew-y: 0; --tw-scale-x: 1; --tw-scale-y: 1; --tw-pan-x: ; --tw-pan-y: ; --tw-pinch-zoom: ; --tw-scroll-snap-strictness: proximity; --tw-gradient-from-position: ; --tw-gradient-via-position: ; --tw-gradient-to-position: ; --tw-ordinal: ; --tw-slashed-zero: ; --tw-numeric-figure: ; --tw-numeric-spacing: ; --tw-numeric-fraction: ; --tw-ring-inset: ; --tw-ring-offset-width: 0px; --tw-ring-offset-color: #fff; --tw-ring-color: rgba(69,89,164,.5); --tw-ring-offset-shadow: 0 0 transparent; --tw-ring-shadow: 0 0 transparent; --tw-shadow: 0 0 transparent; --tw-shadow-colored: 0 0 transparent; --tw-blur: ; --tw-brightness: ; --tw-contrast: ; --tw-grayscale: ; --tw-hue-rotate: ; --tw-invert: ; --tw-saturate: ; --tw-sepia: ; --tw-drop-shadow: ; --tw-backdrop-blur: ; --tw-backdrop-brightness: ; --tw-backdrop-contrast: ; --tw-backdrop-grayscale: ; --tw-backdrop-hue-rotate: ; --tw-backdrop-invert: ; --tw-backdrop-opacity: ; --tw-backdrop-saturate: ; --tw-backdrop-sepia: ; --tw-contain-size: ; --tw-contain-layout: ; --tw-contain-paint: ; --tw-contain-style: ; font-family: &amp;quot;Söhne Mono&amp;quot;, Monaco, &amp;quot;Andale Mono&amp;quot;, &amp;quot;Ubuntu Mono&amp;quot;, monospace; font-size: 14px; white-space: pre;&quot; class=&quot;hljs-comment&quot;&gt; birthday:&lt;/span&gt;" style="text;strokeColor=none;fillColor=none;align=left;verticalAlign=top;spacingLeft=4;spacingRight=4;overflow=hidden;rotatable=0;points=[[0,0.5],[1,0.5]];portConstraint=eastwest;whiteSpace=wrap;html=1;" vertex="1" parent="OoIXohctgrmszUmJhh-0-15">
          <mxGeometry y="52" width="140" height="48" as="geometry" />
        </mxCell>
        <mxCell id="OoIXohctgrmszUmJhh-0-18" value="&lt;span style=&quot;font-family: &amp;quot;Söhne Mono&amp;quot;, Monaco, &amp;quot;Andale Mono&amp;quot;, &amp;quot;Ubuntu Mono&amp;quot;, monospace; font-size: 14px; white-space: pre; background-color: rgb(255, 255, 255);&quot;&gt;Birthday &lt;/span&gt;" style="text;strokeColor=none;fillColor=none;align=left;verticalAlign=top;spacingLeft=4;spacingRight=4;overflow=hidden;rotatable=0;points=[[0,0.5],[1,0.5]];portConstraint=eastwest;whiteSpace=wrap;html=1;" vertex="1" parent="OoIXohctgrmszUmJhh-0-15">
          <mxGeometry y="100" width="140" height="26" as="geometry" />
        </mxCell>
        <mxCell id="OoIXohctgrmszUmJhh-0-23" value="&lt;span style=&quot;font-family: &amp;quot;Söhne Mono&amp;quot;, Monaco, &amp;quot;Andale Mono&amp;quot;, &amp;quot;Ubuntu Mono&amp;quot;, monospace; font-size: 14px; text-align: left; white-space: pre; background-color: rgb(255, 255, 255);&quot;&gt; Name&lt;/span&gt;" style="swimlane;fontStyle=0;childLayout=stackLayout;horizontal=1;startSize=26;fillColor=none;horizontalStack=0;resizeParent=1;resizeParentMax=0;resizeLast=0;collapsible=1;marginBottom=0;whiteSpace=wrap;html=1;" vertex="1" parent="1">
          <mxGeometry x="50" y="466" width="140" height="52" as="geometry" />
        </mxCell>
        <mxCell id="OoIXohctgrmszUmJhh-0-27" value="&lt;span style=&quot;font-family: &amp;quot;Söhne Mono&amp;quot;, Monaco, &amp;quot;Andale Mono&amp;quot;, &amp;quot;Ubuntu Mono&amp;quot;, monospace; font-size: 14px; text-align: left; white-space: pre; background-color: rgb(255, 255, 255);&quot;&gt;Phone&lt;/span&gt;" style="swimlane;fontStyle=0;childLayout=stackLayout;horizontal=1;startSize=26;fillColor=none;horizontalStack=0;resizeParent=1;resizeParentMax=0;resizeLast=0;collapsible=1;marginBottom=0;whiteSpace=wrap;html=1;" vertex="1" parent="1">
          <mxGeometry x="240" y="469" width="140" height="52" as="geometry" />
        </mxCell>
        <mxCell id="OoIXohctgrmszUmJhh-0-31" value="&lt;span style=&quot;font-family: &amp;quot;Söhne Mono&amp;quot;, Monaco, &amp;quot;Andale Mono&amp;quot;, &amp;quot;Ubuntu Mono&amp;quot;, monospace; font-size: 14px; text-align: left; white-space: pre; background-color: rgb(255, 255, 255);&quot;&gt;Birthday&lt;/span&gt;" style="swimlane;fontStyle=0;childLayout=stackLayout;horizontal=1;startSize=26;fillColor=none;horizontalStack=0;resizeParent=1;resizeParentMax=0;resizeLast=0;collapsible=1;marginBottom=0;whiteSpace=wrap;html=1;" vertex="1" parent="1">
          <mxGeometry x="470" y="466" width="140" height="52" as="geometry" />
        </mxCell>
        <mxCell id="OoIXohctgrmszUmJhh-0-35" value="&lt;span style=&quot;font-family: &amp;quot;Söhne Mono&amp;quot;, Monaco, &amp;quot;Andale Mono&amp;quot;, &amp;quot;Ubuntu Mono&amp;quot;, monospace; font-size: 14px; text-align: left; white-space: pre; background-color: rgb(255, 255, 255);&quot;&gt;Field&lt;/span&gt;" style="swimlane;fontStyle=0;childLayout=stackLayout;horizontal=1;startSize=26;fillColor=none;horizontalStack=0;resizeParent=1;resizeParentMax=0;resizeLast=0;collapsible=1;marginBottom=0;whiteSpace=wrap;html=1;" vertex="1" parent="1">
          <mxGeometry x="230" y="332" width="140" height="52" as="geometry" />
        </mxCell>
        <mxCell id="OoIXohctgrmszUmJhh-0-36" value="&lt;span style=&quot;font-family: &amp;quot;Söhne Mono&amp;quot;, Monaco, &amp;quot;Andale Mono&amp;quot;, &amp;quot;Ubuntu Mono&amp;quot;, monospace; font-size: 14px; white-space: pre; background-color: rgb(255, 255, 255);&quot;&gt;- value&lt;/span&gt;" style="text;strokeColor=none;fillColor=none;align=left;verticalAlign=top;spacingLeft=4;spacingRight=4;overflow=hidden;rotatable=0;points=[[0,0.5],[1,0.5]];portConstraint=eastwest;whiteSpace=wrap;html=1;" vertex="1" parent="OoIXohctgrmszUmJhh-0-35">
          <mxGeometry y="26" width="140" height="26" as="geometry" />
        </mxCell>
        <mxCell id="OoIXohctgrmszUmJhh-0-41" value="1" style="endArrow=open;html=1;endSize=12;startArrow=diamondThin;startSize=14;startFill=0;edgeStyle=orthogonalEdgeStyle;align=left;verticalAlign=bottom;rounded=0;entryX=0;entryY=0.5;entryDx=0;entryDy=0;" edge="1" parent="1" source="OoIXohctgrmszUmJhh-0-5" target="OoIXohctgrmszUmJhh-0-17">
          <mxGeometry x="-1" y="3" relative="1" as="geometry">
            <mxPoint x="140" y="280" as="sourcePoint" />
            <mxPoint x="300" y="280" as="targetPoint" />
            <Array as="points">
              <mxPoint x="460" y="93" />
              <mxPoint x="460" y="116" />
            </Array>
          </mxGeometry>
        </mxCell>
        <mxCell id="OoIXohctgrmszUmJhh-0-50" value="" style="strokeWidth=2;html=1;shape=mxgraph.flowchart.annotation_1;align=left;pointerEvents=1;rotation=90;" vertex="1" parent="1">
          <mxGeometry x="305" y="235" width="50" height="410" as="geometry" />
        </mxCell>
        <mxCell id="OoIXohctgrmszUmJhh-0-51" value="" style="line;strokeWidth=2;direction=south;html=1;" vertex="1" parent="1">
          <mxGeometry x="305" y="416" width="10" height="54" as="geometry" />
        </mxCell>
        <mxCell id="OoIXohctgrmszUmJhh-0-52" value="" style="endArrow=open;endFill=1;html=1;rounded=0;exitX=0;exitY=0.5;exitDx=0;exitDy=0;exitPerimeter=0;entryX=0.581;entryY=1;entryDx=0;entryDy=0;entryPerimeter=0;" edge="1" parent="1">
          <mxGeometry width="160" relative="1" as="geometry">
            <mxPoint x="309" y="416" as="sourcePoint" />
            <mxPoint x="310.3399999999999" y="384" as="targetPoint" />
          </mxGeometry>
        </mxCell>
        <mxCell id="OoIXohctgrmszUmJhh-0-53" value="" style="endArrow=open;endFill=1;endSize=12;html=1;rounded=0;entryX=0.639;entryY=1;entryDx=0;entryDy=0;entryPerimeter=0;" edge="1" parent="1" target="OoIXohctgrmszUmJhh-0-11">
          <mxGeometry width="160" relative="1" as="geometry">
            <mxPoint x="310" y="330" as="sourcePoint" />
            <mxPoint x="220" y="280" as="targetPoint" />
          </mxGeometry>
        </mxCell>
      </root>
    </mxGraphModel>
  </diagram>
</mxfile>
